<svg width="15" height="15" viewBox="0 0 15 15" fill="none" xmlns="http://www.w3.org/2000/svg">
<path d="M9.07895 4.73684C8.42368 4.73684 7.89474 5.26579 7.89474 5.92105C7.89474 6.57632 8.42368 7.10526 9.07895 7.10526C9.73421 7.10526 10.2632 6.57632 10.2632 5.92105C10.2632 5.26579 9.73421 4.73684 9.07895 4.73684ZM9.07895 7.89474C8.42368 7.89474 7.89474 8.42368 7.89474 9.07895C7.89474 9.73421 8.42368 10.2632 9.07895 10.2632C9.73421 10.2632 10.2632 9.73421 10.2632 9.07895C10.2632 8.42368 9.73421 7.89474 9.07895 7.89474ZM5.92105 11.4474C5.48684 11.4474 5.13158 11.8026 5.13158 12.2368C5.13158 12.6711 5.48684 13.0263 5.92105 13.0263C6.35526 13.0263 6.71053 12.6711 6.71053 12.2368C6.71053 11.8026 6.35526 11.4474 5.92105 11.4474ZM5.92105 4.73684C5.26579 4.73684 4.73684 5.26579 4.73684 5.92105C4.73684 6.57632 5.26579 7.10526 5.92105 7.10526C6.57632 7.10526 7.10526 6.57632 7.10526 5.92105C7.10526 5.26579 6.57632 4.73684 5.92105 4.73684ZM9.07895 14.2105C8.85789 14.2105 8.68421 14.3842 8.68421 14.6053C8.68421 14.8263 8.85789 15 9.07895 15C9.3 15 9.47368 14.8263 9.47368 14.6053C9.47368 14.3842 9.3 14.2105 9.07895 14.2105ZM9.07895 11.4474C8.64474 11.4474 8.28947 11.8026 8.28947 12.2368C8.28947 12.6711 8.64474 13.0263 9.07895 13.0263C9.51316 13.0263 9.86842 12.6711 9.86842 12.2368C9.86842 11.8026 9.51316 11.4474 9.07895 11.4474ZM14.6053 8.68421C14.3842 8.68421 14.2105 8.85789 14.2105 9.07895C14.2105 9.3 14.3842 9.47368 14.6053 9.47368C14.8263 9.47368 15 9.3 15 9.07895C15 8.85789 14.8263 8.68421 14.6053 8.68421ZM12.2368 1.97368C11.8026 1.97368 11.4474 2.32895 11.4474 2.76316C11.4474 3.19737 11.8026 3.55263 12.2368 3.55263C12.6711 3.55263 13.0263 3.19737 13.0263 2.76316C13.0263 2.32895 12.6711 1.97368 12.2368 1.97368ZM12.2368 5.13158C11.8026 5.13158 11.4474 5.48684 11.4474 5.92105C11.4474 6.35526 11.8026 6.71053 12.2368 6.71053C12.6711 6.71053 13.0263 6.35526 13.0263 5.92105C13.0263 5.48684 12.6711 5.13158 12.2368 5.13158ZM12.2368 11.4474C11.8026 11.4474 11.4474 11.8026 11.4474 12.2368C11.4474 12.6711 11.8026 13.0263 12.2368 13.0263C12.6711 13.0263 13.0263 12.6711 13.0263 12.2368C13.0263 11.8026 12.6711 11.4474 12.2368 11.4474ZM12.2368 8.28947C11.8026 8.28947 11.4474 8.64474 11.4474 9.07895C11.4474 9.51316 11.8026 9.86842 12.2368 9.86842C12.6711 9.86842 13.0263 9.51316 13.0263 9.07895C13.0263 8.64474 12.6711 8.28947 12.2368 8.28947ZM5.92105 7.89474C5.26579 7.89474 4.73684 8.42368 4.73684 9.07895C4.73684 9.73421 5.26579 10.2632 5.92105 10.2632C6.57632 10.2632 7.10526 9.73421 7.10526 9.07895C7.10526 8.42368 6.57632 7.89474 5.92105 7.89474ZM5.92105 3.55263C6.35526 3.55263 6.71053 3.19737 6.71053 2.76316C6.71053 2.32895 6.35526 1.97368 5.92105 1.97368C5.48684 1.97368 5.13158 2.32895 5.13158 2.76316C5.13158 3.19737 5.48684 3.55263 5.92105 3.55263ZM5.92105 0.789474C6.14211 0.789474 6.31579 0.61579 6.31579 0.394737C6.31579 0.173684 6.14211 0 5.92105 0C5.7 0 5.52632 0.173684 5.52632 0.394737C5.52632 0.61579 5.7 0.789474 5.92105 0.789474ZM5.92105 14.2105C5.7 14.2105 5.52632 14.3842 5.52632 14.6053C5.52632 14.8263 5.7 15 5.92105 15C6.14211 15 6.31579 14.8263 6.31579 14.6053C6.31579 14.3842 6.14211 14.2105 5.92105 14.2105ZM0.394737 8.68421C0.173684 8.68421 0 8.85789 0 9.07895C0 9.3 0.173684 9.47368 0.394737 9.47368C0.61579 9.47368 0.789474 9.3 0.789474 9.07895C0.789474 8.85789 0.61579 8.68421 0.394737 8.68421ZM9.07895 0.789474C9.3 0.789474 9.47368 0.61579 9.47368 0.394737C9.47368 0.173684 9.3 0 9.07895 0C8.85789 0 8.68421 0.173684 8.68421 0.394737C8.68421 0.61579 8.85789 0.789474 9.07895 0.789474ZM9.07895 3.55263C9.51316 3.55263 9.86842 3.19737 9.86842 2.76316C9.86842 2.32895 9.51316 1.97368 9.07895 1.97368C8.64474 1.97368 8.28947 2.32895 8.28947 2.76316C8.28947 3.19737 8.64474 3.55263 9.07895 3.55263ZM14.6053 6.31579C14.8263 6.31579 15 6.14211 15 5.92105C15 5.7 14.8263 5.52632 14.6053 5.52632C14.3842 5.52632 14.2105 5.7 14.2105 5.92105C14.2105 6.14211 14.3842 6.31579 14.6053 6.31579ZM2.76316 1.97368C2.32895 1.97368 1.97368 2.32895 1.97368 2.76316C1.97368 3.19737 2.32895 3.55263 2.76316 3.55263C3.19737 3.55263 3.55263 3.19737 3.55263 2.76316C3.55263 2.32895 3.19737 1.97368 2.76316 1.97368ZM0.394737 5.52632C0.173684 5.52632 0 5.7 0 5.92105C0 6.14211 0.173684 6.31579 0.394737 6.31579C0.61579 6.31579 0.789474 6.14211 0.789474 5.92105C0.789474 5.7 0.61579 5.52632 0.394737 5.52632ZM2.76316 5.13158C2.32895 5.13158 1.97368 5.48684 1.97368 5.92105C1.97368 6.35526 2.32895 6.71053 2.76316 6.71053C3.19737 6.71053 3.55263 6.35526 3.55263 5.92105C3.55263 5.48684 3.19737 5.13158 2.76316 5.13158ZM2.76316 11.4474C2.32895 11.4474 1.97368 11.8026 1.97368 12.2368C1.97368 12.6711 2.32895 13.0263 2.76316 13.0263C3.19737 13.0263 3.55263 12.6711 3.55263 12.2368C3.55263 11.8026 3.19737 11.4474 2.76316 11.4474ZM2.76316 8.28947C2.32895 8.28947 1.97368 8.64474 1.97368 9.07895C1.97368 9.51316 2.32895 9.86842 2.76316 9.86842C3.19737 9.86842 3.55263 9.51316 3.55263 9.07895C3.55263 8.64474 3.19737 8.28947 2.76316 8.28947Z" fill="white" fill-opacity="0.6"/>
</svg>
