<svg width="13" height="13" viewBox="0 0 13 13" fill="none" xmlns="http://www.w3.org/2000/svg">
<path d="M6.24805 0.268555C6.25081 0.289018 6.24834 0.312496 6.24023 0.332031C6.23256 0.35036 6.22155 0.362139 6.20996 0.369141C4.96092 1.12399 4.125 2.49551 4.125 4.0625C4.125 6.44426 6.05574 8.375 8.4375 8.375C10.0045 8.375 11.376 7.53909 12.1309 6.29004C12.1379 6.27845 12.1496 6.26744 12.168 6.25977C12.1875 6.25167 12.211 6.24919 12.2314 6.25195C12.2394 6.25305 12.2449 6.25531 12.249 6.25684C12.2453 9.56737 9.5614 12.25 6.25 12.25C2.93629 12.25 0.25 9.56368 0.25 6.25C0.25 2.93889 2.93207 0.254218 6.24219 0.25C6.24383 0.254118 6.24684 0.259832 6.24805 0.268555Z" stroke="white" stroke-opacity="0.65" stroke-width="0.5"/>
</svg>
