<svg width="13" height="13" viewBox="0 0 13 13" fill="none" xmlns="http://www.w3.org/2000/svg">
<path d="M2.71387 7.0332C3.51177 6.69915 4.43964 6.92631 5.27637 7.75L5.30273 7.77832C6.0453 8.71559 6.20082 9.49566 5.91309 10.1377C5.7276 10.551 5.35982 10.8944 4.87402 11.1758C4.38963 11.4563 3.80748 11.6645 3.22656 11.8174C2.06478 12.1231 0.947297 12.1969 0.722656 12.209L0.489258 12.2217L0.621094 12.0273L0.624023 12.0225C0.624988 12.021 0.628624 12.0141 0.633789 12.0059C0.640298 11.9955 0.649317 11.9812 0.660156 11.9629C0.682037 11.9259 0.712795 11.8729 0.748047 11.8047C0.818638 11.668 0.910685 11.469 1.00195 11.2139C1.18447 10.7035 1.36424 9.96508 1.36426 9.03711C1.36426 8.19352 1.92002 7.36441 2.71387 7.0332ZM11.542 0.25C11.811 0.245105 12.0225 0.313313 12.1914 0.447266L12.2617 0.509766C12.4814 0.730774 12.5706 0.977129 12.5596 1.25781C12.544 1.62931 12.3548 2.11137 12.0088 2.67969C11.6665 3.24179 11.1879 3.86165 10.6289 4.50098C9.58938 5.68997 8.28695 6.92674 7.11914 7.9707C6.948 7.60628 6.71044 7.21964 6.38574 6.81445L6.19629 6.96582L6.38574 6.81348L6.37695 6.80469L6.31836 6.73828L6.31445 6.73242L6.30859 6.72754C5.85335 6.27173 5.35003 5.92933 4.81738 5.71484C5.77906 4.63845 7.00126 3.34327 8.2002 2.28125C8.85255 1.70341 9.49208 1.1989 10.0742 0.835938C10.6626 0.469141 11.1623 0.266171 11.542 0.25Z" stroke="white" stroke-opacity="0.6" stroke-width="0.5"/>
</svg>
